<mxfile host="app.diagrams.net" modified="2023-09-27T06:43:47.856Z" agent="Mozilla/5.0 (Windows NT 10.0; Win64; x64; rv:109.0) Gecko/20100101 Firefox/117.0" etag="ufHPSDTqAMM_X9fhTOuu" version="21.8.2" type="device">
  <diagram name="Page-1" id="c37626ed-c26b-45fb-9056-f9ebc6bb27b6">
    <mxGraphModel dx="3191" dy="1745" grid="1" gridSize="10" guides="1" tooltips="1" connect="1" arrows="1" fold="1" page="1" pageScale="1" pageWidth="1100" pageHeight="850" background="none" math="0" shadow="0">
      <root>
        <mxCell id="0" />
        <mxCell id="1" parent="0" />
        <mxCell id="YTKUPIz1EqG-NRM5-NrK-10" value="" style="rounded=1;whiteSpace=wrap;html=1;fillColor=none;" vertex="1" parent="1">
          <mxGeometry x="391" y="408" width="368" height="164" as="geometry" />
        </mxCell>
        <mxCell id="YTKUPIz1EqG-NRM5-NrK-1" value="" style="shape=mxgraph.cisco.computers_and_peripherals.web_browser;sketch=0;html=1;pointerEvents=1;dashed=0;fillColor=#036897;strokeColor=#ffffff;strokeWidth=2;verticalLabelPosition=bottom;verticalAlign=top;align=center;outlineConnect=0;" vertex="1" parent="1">
          <mxGeometry x="440" y="446" width="62" height="64" as="geometry" />
        </mxCell>
        <mxCell id="YTKUPIz1EqG-NRM5-NrK-2" value="Browser" style="text;strokeColor=none;fillColor=none;html=1;fontSize=24;fontStyle=1;verticalAlign=middle;align=center;" vertex="1" parent="1">
          <mxGeometry x="411.5" y="514" width="119" height="40" as="geometry" />
        </mxCell>
        <mxCell id="YTKUPIz1EqG-NRM5-NrK-3" value="" style="shape=mxgraph.cisco.servers.microwebserver;sketch=0;html=1;pointerEvents=1;dashed=0;fillColor=#036897;strokeColor=#ffffff;strokeWidth=2;verticalLabelPosition=bottom;verticalAlign=top;align=center;outlineConnect=0;" vertex="1" parent="1">
          <mxGeometry x="641.5" y="446" width="77" height="51" as="geometry" />
        </mxCell>
        <mxCell id="YTKUPIz1EqG-NRM5-NrK-4" value="Nyx client" style="text;strokeColor=none;fillColor=none;html=1;fontSize=24;fontStyle=1;verticalAlign=middle;align=center;" vertex="1" parent="1">
          <mxGeometry x="630" y="509.5" width="100" height="40" as="geometry" />
        </mxCell>
        <mxCell id="YTKUPIz1EqG-NRM5-NrK-5" value="" style="endArrow=classic;startArrow=classic;html=1;rounded=0;" edge="1" parent="1">
          <mxGeometry width="50" height="50" relative="1" as="geometry">
            <mxPoint x="530.5" y="477.77" as="sourcePoint" />
            <mxPoint x="610.5" y="477.77" as="targetPoint" />
          </mxGeometry>
        </mxCell>
        <mxCell id="YTKUPIz1EqG-NRM5-NrK-11" value="End user device" style="text;strokeColor=none;fillColor=none;html=1;fontSize=24;fontStyle=1;verticalAlign=middle;align=center;" vertex="1" parent="1">
          <mxGeometry x="530" y="368" width="100" height="40" as="geometry" />
        </mxCell>
        <mxCell id="YTKUPIz1EqG-NRM5-NrK-12" value="" style="shape=mxgraph.cisco.servers.communications_server;sketch=0;html=1;pointerEvents=1;dashed=0;fillColor=#036897;strokeColor=#ffffff;strokeWidth=2;verticalLabelPosition=bottom;verticalAlign=top;align=center;outlineConnect=0;" vertex="1" parent="1">
          <mxGeometry x="690" y="1010" width="54" height="56" as="geometry" />
        </mxCell>
        <mxCell id="YTKUPIz1EqG-NRM5-NrK-13" value="&lt;div&gt;Accord&lt;/div&gt;" style="text;strokeColor=none;fillColor=none;html=1;fontSize=24;fontStyle=1;verticalAlign=middle;align=center;" vertex="1" parent="1">
          <mxGeometry x="667" y="1067" width="100" height="40" as="geometry" />
        </mxCell>
        <mxCell id="YTKUPIz1EqG-NRM5-NrK-14" value="" style="endArrow=classic;startArrow=classic;html=1;rounded=0;" edge="1" parent="1">
          <mxGeometry width="50" height="50" relative="1" as="geometry">
            <mxPoint x="720" y="990" as="sourcePoint" />
            <mxPoint x="680" y="554" as="targetPoint" />
          </mxGeometry>
        </mxCell>
        <mxCell id="YTKUPIz1EqG-NRM5-NrK-15" value="NyxNet" style="ellipse;shape=cloud;whiteSpace=wrap;html=1;rounded=0;shadow=0;comic=0;strokeWidth=1;fontFamily=Verdana;fontSize=12;" vertex="1" parent="1">
          <mxGeometry x="1010" y="425" width="120" height="80" as="geometry" />
        </mxCell>
        <mxCell id="YTKUPIz1EqG-NRM5-NrK-16" value="" style="endArrow=classic;html=1;rounded=0;exitX=0.88;exitY=0.1;exitDx=0;exitDy=0;exitPerimeter=0;" edge="1" parent="1" source="YTKUPIz1EqG-NRM5-NrK-3">
          <mxGeometry width="50" height="50" relative="1" as="geometry">
            <mxPoint x="800" y="500" as="sourcePoint" />
            <mxPoint x="1010" y="450" as="targetPoint" />
          </mxGeometry>
        </mxCell>
        <mxCell id="YTKUPIz1EqG-NRM5-NrK-17" value="" style="endArrow=classic;html=1;rounded=0;" edge="1" parent="1" target="YTKUPIz1EqG-NRM5-NrK-3">
          <mxGeometry width="50" height="50" relative="1" as="geometry">
            <mxPoint x="1000" y="472" as="sourcePoint" />
            <mxPoint x="1080" y="540" as="targetPoint" />
          </mxGeometry>
        </mxCell>
        <mxCell id="YTKUPIz1EqG-NRM5-NrK-18" value="" style="shape=mxgraph.cisco.security.lock;sketch=0;html=1;pointerEvents=1;dashed=0;fillColor=#036897;strokeColor=#ffffff;strokeWidth=2;verticalLabelPosition=bottom;verticalAlign=top;align=center;outlineConnect=0;" vertex="1" parent="1">
          <mxGeometry x="795" y="425" width="53" height="61" as="geometry" />
        </mxCell>
        <mxCell id="YTKUPIz1EqG-NRM5-NrK-19" value="" style="shape=mxgraph.cisco.servers.standard_host;sketch=0;html=1;pointerEvents=1;dashed=0;fillColor=#036897;strokeColor=#ffffff;strokeWidth=2;verticalLabelPosition=bottom;verticalAlign=top;align=center;outlineConnect=0;" vertex="1" parent="1">
          <mxGeometry x="1260.5" y="425" width="43" height="62" as="geometry" />
        </mxCell>
        <mxCell id="YTKUPIz1EqG-NRM5-NrK-20" value="RVP" style="text;strokeColor=none;fillColor=none;html=1;fontSize=24;fontStyle=1;verticalAlign=middle;align=center;" vertex="1" parent="1">
          <mxGeometry x="1232" y="499" width="100" height="40" as="geometry" />
        </mxCell>
        <mxCell id="YTKUPIz1EqG-NRM5-NrK-21" value="" style="endArrow=classic;startArrow=classic;html=1;rounded=0;" edge="1" parent="1">
          <mxGeometry width="50" height="50" relative="1" as="geometry">
            <mxPoint x="1160" y="460" as="sourcePoint" />
            <mxPoint x="1220" y="460" as="targetPoint" />
          </mxGeometry>
        </mxCell>
        <mxCell id="YTKUPIz1EqG-NRM5-NrK-22" value="NyxNet" style="ellipse;shape=cloud;whiteSpace=wrap;html=1;rounded=0;shadow=0;comic=0;strokeWidth=1;fontFamily=Verdana;fontSize=12;" vertex="1" parent="1">
          <mxGeometry x="1360.5" y="618" width="120" height="80" as="geometry" />
        </mxCell>
        <mxCell id="YTKUPIz1EqG-NRM5-NrK-23" value="" style="endArrow=classic;startArrow=classic;html=1;rounded=0;" edge="1" parent="1">
          <mxGeometry width="50" height="50" relative="1" as="geometry">
            <mxPoint x="1320" y="480" as="sourcePoint" />
            <mxPoint x="1400" y="610" as="targetPoint" />
          </mxGeometry>
        </mxCell>
        <mxCell id="YTKUPIz1EqG-NRM5-NrK-24" value="" style="rounded=1;whiteSpace=wrap;html=1;fillColor=none;" vertex="1" parent="1">
          <mxGeometry x="990" y="780" width="368" height="164" as="geometry" />
        </mxCell>
        <mxCell id="YTKUPIz1EqG-NRM5-NrK-26" value="Web server" style="text;strokeColor=none;fillColor=none;html=1;fontSize=24;fontStyle=1;verticalAlign=middle;align=center;" vertex="1" parent="1">
          <mxGeometry x="1010.5" y="886" width="119" height="40" as="geometry" />
        </mxCell>
        <mxCell id="YTKUPIz1EqG-NRM5-NrK-27" value="" style="shape=mxgraph.cisco.servers.microwebserver;sketch=0;html=1;pointerEvents=1;dashed=0;fillColor=#036897;strokeColor=#ffffff;strokeWidth=2;verticalLabelPosition=bottom;verticalAlign=top;align=center;outlineConnect=0;" vertex="1" parent="1">
          <mxGeometry x="1240.5" y="818" width="77" height="51" as="geometry" />
        </mxCell>
        <mxCell id="YTKUPIz1EqG-NRM5-NrK-28" value="Nyx server" style="text;strokeColor=none;fillColor=none;html=1;fontSize=24;fontStyle=1;verticalAlign=middle;align=center;" vertex="1" parent="1">
          <mxGeometry x="1229" y="881.5" width="100" height="40" as="geometry" />
        </mxCell>
        <mxCell id="YTKUPIz1EqG-NRM5-NrK-29" value="" style="endArrow=classic;startArrow=classic;html=1;rounded=0;" edge="1" parent="1">
          <mxGeometry width="50" height="50" relative="1" as="geometry">
            <mxPoint x="1129.5" y="849.77" as="sourcePoint" />
            <mxPoint x="1209.5" y="849.77" as="targetPoint" />
          </mxGeometry>
        </mxCell>
        <mxCell id="YTKUPIz1EqG-NRM5-NrK-30" value="Hidden service" style="text;strokeColor=none;fillColor=none;html=1;fontSize=24;fontStyle=1;verticalAlign=middle;align=center;" vertex="1" parent="1">
          <mxGeometry x="1068.5" y="740" width="211" height="40" as="geometry" />
        </mxCell>
        <mxCell id="YTKUPIz1EqG-NRM5-NrK-31" value="" style="endArrow=classic;html=1;rounded=0;exitX=0.88;exitY=0.1;exitDx=0;exitDy=0;exitPerimeter=0;" edge="1" parent="1" source="YTKUPIz1EqG-NRM5-NrK-27">
          <mxGeometry width="50" height="50" relative="1" as="geometry">
            <mxPoint x="1399" y="872" as="sourcePoint" />
            <mxPoint x="1390" y="700" as="targetPoint" />
          </mxGeometry>
        </mxCell>
        <mxCell id="YTKUPIz1EqG-NRM5-NrK-32" value="" style="endArrow=classic;html=1;rounded=0;entryX=1;entryY=0.5;entryDx=0;entryDy=0;entryPerimeter=0;" edge="1" parent="1" target="YTKUPIz1EqG-NRM5-NrK-27">
          <mxGeometry width="50" height="50" relative="1" as="geometry">
            <mxPoint x="1440" y="700" as="sourcePoint" />
            <mxPoint x="1679" y="912" as="targetPoint" />
          </mxGeometry>
        </mxCell>
        <mxCell id="YTKUPIz1EqG-NRM5-NrK-33" value="" style="shape=mxgraph.cisco.security.lock;sketch=0;html=1;pointerEvents=1;dashed=0;fillColor=#036897;strokeColor=#ffffff;strokeWidth=2;verticalLabelPosition=bottom;verticalAlign=top;align=center;outlineConnect=0;" vertex="1" parent="1">
          <mxGeometry x="1317.5" y="757" width="53" height="61" as="geometry" />
        </mxCell>
        <mxCell id="YTKUPIz1EqG-NRM5-NrK-34" value="" style="endArrow=classic;startArrow=classic;html=1;rounded=0;entryX=0.5;entryY=1;entryDx=0;entryDy=0;" edge="1" parent="1" target="YTKUPIz1EqG-NRM5-NrK-28">
          <mxGeometry width="50" height="50" relative="1" as="geometry">
            <mxPoint x="780" y="1040" as="sourcePoint" />
            <mxPoint x="848" y="839" as="targetPoint" />
          </mxGeometry>
        </mxCell>
        <mxCell id="YTKUPIz1EqG-NRM5-NrK-35" value="" style="shape=mxgraph.cisco.computers_and_peripherals.ibm_mainframe;sketch=0;html=1;pointerEvents=1;dashed=0;fillColor=#036897;strokeColor=#ffffff;strokeWidth=2;verticalLabelPosition=bottom;verticalAlign=top;align=center;outlineConnect=0;" vertex="1" parent="1">
          <mxGeometry x="1045" y="817" width="50" height="70" as="geometry" />
        </mxCell>
      </root>
    </mxGraphModel>
  </diagram>
</mxfile>
